<?xml version="1.0" encoding="iso-8859-1"?>
<!-- Uploaded to: SVG Repo, www.svgrepo.com, Generator: SVG Repo Mixer Tools -->
<svg fill="#000000" height="800px" width="800px" version="1.1" id="Layer_1" xmlns="http://www.w3.org/2000/svg" xmlns:xlink="http://www.w3.org/1999/xlink" 
	 viewBox="0 0 512 512" xml:space="preserve">
<g>
	<g>
		<path d="M495.809,14.921H16.191C7.25,14.921,0,22.169,0,31.112v49.653c0,8.943,7.25,16.191,16.191,16.191h36.877v223.879
			c0,8.943,7.25,16.191,16.191,16.191h89.524l-40.132,124.799c-4.563,14.189,3.24,29.389,17.429,33.951
			c14.185,4.56,29.388-3.24,33.952-17.429l45.446-141.322h81.047l45.446,141.322c4.564,14.191,19.768,21.991,33.951,17.429
			c14.189-4.562,21.992-19.763,17.429-33.951l-40.132-124.799h89.524c8.943,0,16.191-7.25,16.191-16.191V96.956h36.877
			c8.943,0,16.191-7.25,16.191-16.191V31.112C512,22.169,504.751,14.921,495.809,14.921z M259.157,256.035
			c0,9.057-7.342,16.4-16.4,16.4H132.288c-9.057,0-16.4-7.342-16.4-16.4V145.566c0-9.057,7.342-16.399,16.4-16.399h110.469
			c9.057,0,16.4,7.342,16.4,16.399V256.035z M396.111,273.122h-88.513c-8.943,0-16.191-7.25-16.191-16.191
			c0-8.943,7.25-16.191,16.191-16.191h88.513c8.943,0,16.191,7.25,16.191,16.191C412.302,265.873,405.054,273.122,396.111,273.122z
			 M396.111,216.991h-88.513c-8.943,0-16.191-7.25-16.191-16.191c0-8.943,7.25-16.191,16.191-16.191h88.513
			c8.943,0,16.191,7.25,16.191,16.191C412.302,209.743,405.054,216.991,396.111,216.991z M396.111,161.941h-88.513
			c-8.943,0-16.191-7.25-16.191-16.191s7.25-16.191,16.191-16.191h88.513c8.943,0,16.191,7.25,16.191,16.191
			S405.054,161.941,396.111,161.941z"/>
	</g>
</g>
</svg>